# xmcd
#
# Track frame offsets:
#	150
#	21362
#	37342
#	57531
#	70994
#	85735
#	104796
#	123296
#	140086
#	153942
#	170177
#	186475
#	214626
#
# Disc length: 3601 seconds
#
# Revision: 1
# Processed by: cddbd v1.5.2PL0 Copyright (c) Steve Scherf et al.
# Submitted via: audiograbber 1.83.01
#
DISCID=cd0e0f0d
DTITLE=Compilation - Cb60467
DYEAR=2011
DGENRE=Country
TTITLE0=Taylor Swift - The Story Of Us
TTITLE1=Joe Nichols - Take It Off
TTITLE2=Brad Paisley - Remind Me
TTITLE3=Jerrod Niemann - One More Drinking Song
TTITLE4=Thompson Square - I Got You
TTITLE5=Kenny Chesney - Grace Potter - You And Tequila
TTITLE6=Terri Clark - Northern Girl
TTITLE7=Billy Currington - Love Done Gone
TTITLE8=Kellie Pickler - Tough
TTITLE9=Jacob Lyda - Im Doing Alright
TTITLE10=Josh Abbott Band/ Kacey Musgraves - Oh Tonight
TTITLE11=Corey Smith - Twenty One
TTITLE12=13 - Data Track
EXTD=
EXTT0=
EXTT1=
EXTT2=
EXTT3=
EXTT4=
EXTT5=
EXTT6=
EXTT7=
EXTT8=
EXTT9=
EXTT10=
EXTT11=
EXTT12=
PLAYORDER=
